PathFileType	4	(X/Y/Z)	C:\Users\Basilio\Documents\Thesis Gigler\squatting_fais\c3dfiles\058\SLS_front_pre4\markers_experimental.trc
DataRate	CameraRate	NumFrames	NumMarkers	Units	OrigDataRate	OrigDataStartFrame	OrigNumFrames
200.000000	200.000000	4	61	mm	200.000000	320	1282
Frame#	Time	FHD			LBHD			RBHD			C7			T10			CLAV			LSHO			LUUPA			LMUPA			LDUPA			LLEP			LRAD			LUL			LRFIN			RSHO			RUPA1			RMUPA			RDUPA			RLEP			RMEP			RRAD			RUL			RUFIN			LASI			RASI			USACR			LSACR			RSACR			LTHI1			LTHI2			LTHI3			LTHI4			LLFC			LMFC			LTIB1			LTIB2			LTIB3			LTIB4			LLMAL			LMMAL			LHEE			LMT1			LMT2			LMT5			RTHI			RTHI2			RTHI3			RTHI4			RLFC			RMFC			RTIB1			RTIB2			RTIB3			RTIB4			RLMAL			RMMAL			RHEE			RMT1			RMT2			RMT5			LMEP			
		X1	Y1	Z1	X2	Y2	Z2	X3	Y3	Z3	X4	Y4	Z4	X5	Y5	Z5	X6	Y6	Z6	X7	Y7	Z7	X8	Y8	Z8	X9	Y9	Z9	X10	Y10	Z10	X11	Y11	Z11	X12	Y12	Z12	X13	Y13	Z13	X14	Y14	Z14	X15	Y15	Z15	X16	Y16	Z16	X17	Y17	Z17	X18	Y18	Z18	X19	Y19	Z19	X20	Y20	Z20	X21	Y21	Z21	X22	Y22	Z22	X23	Y23	Z23	X24	Y24	Z24	X25	Y25	Z25	X26	Y26	Z26	X27	Y27	Z27	X28	Y28	Z28	X29	Y29	Z29	X30	Y30	Z30	X31	Y31	Z31	X32	Y32	Z32	X33	Y33	Z33	X34	Y34	Z34	X35	Y35	Z35	X36	Y36	Z36	X37	Y37	Z37	X38	Y38	Z38	X39	Y39	Z39	X40	Y40	Z40	X41	Y41	Z41	X42	Y42	Z42	X43	Y43	Z43	X44	Y44	Z44	X45	Y45	Z45	X46	Y46	Z46	X47	Y47	Z47	X48	Y48	Z48	X49	Y49	Z49	X50	Y50	Z50	X51	Y51	Z51	X52	Y52	Z52	X53	Y53	Z53	X54	Y54	Z54	X55	Y55	Z55	X56	Y56	Z56	X57	Y57	Z57	X58	Y58	Z58	X59	Y59	Z59	X60	Y60	Z60	X61	Y61	Z61	

321	1.6	-314.4326171875001	1809.723876953125	-628.9348754882814	-468.1983337402345	1751.112060546875	-702.5800170898439	-303.4862670898438	1818.535888671875	-770.919616699219	-472.5767211914064	1598.671630859375	-723.0110473632814	-478.7473449707032	1290.147583007813	-717.9375000000001	-317.7930908203126	1552.099853515625	-706.3178710937501	-329.0760803222657	1608.3369140625	-858.3372192382815	-174.5854644775391	1539.357421875	-969.8882446289065	-149.3293151855469	1576.425537109375	-945.8189697265627	-104.9976348876953	1538.781127929688	-962.4700927734377	-31.48755073547364	1542.020385742188	-945.9866333007815	235.0537872314454	1551.708984375	-849.2357177734377	238.5724182128907	1571.15966796875	-927.9816894531252	335.0196838378907	1573.858276367188	-849.8731079101565	-346.4373779296876	1604.047241210938	-554.3770751953126	-190.0019073486328	1520.958984375	-444.6449584960939	-166.7007598876953	1558.53857421875	-469.3735351562501	-120.5981369018555	1530.114868164063	-445.2329711914064	-53.50806045532228	1521.557006835938	-451.2002563476564	-44.58091354370118	1462.170532226563	-501.2608947753907	217.6103210449219	1549.612548828125	-531.1332397460939	214.8708190917969	1563.163940429688	-450.8374633789064	309.7107849121094	1576.025024414063	-516.8948974609376	-294.3365783691407	1117.076782226563	-863.9346923828127	-281.4652099609376	1087.694702148438	-624.7100219726564	-485.6206054687501	1165.186279296875	-718.9934692382814	-493.5049133300782	1136.18017578125	-749.3660888671876	-484.6336669921876	1130.244750976563	-692.4201049804689	-205.0791778564454	898.3875122070315	-940.763854980469	-136.7058868408203	850.5562744140627	-928.7888183593752	-105.4976272583008	870.6619873046877	-894.2794189453127	-129.1297760009766	790.9363403320315	-926.7153930664065	-68.8379364013672	710.9494628906251	-915.7285156250002	-66.21146392822267	698.8842163085939	-789.0397949218752	53.88867187500001	634.9365234375001	-871.749450683594	44.83203887939454	581.1408691406251	-936.5535888671877	76.89544677734376	594.6475219726564	-907.6255493164065	126.8921890258789	530.2498779296876	-884.2424926757815	209.4624023437501	340.2423400878907	-911.8259887695315	207.2071380615235	359.9729919433594	-819.5206298828127	184.3121032714844	266.4172058105469	-867.3227539062502	346.8691101074219	412.9662170410157	-821.968933105469	353.0996093750001	421.6848449707032	-868.7978515625002	339.1838684082032	376.3715820312501	-926.5679931640627	-376.9163818359376	869.2485961914065	-575.2555541992189	-338.4594421386719	815.3383789062502	-579.1526489257814	-306.0154113769532	816.7903442382815	-581.6713256835939	-365.1672058105469	737.7391357421876	-599.4608764648439	-355.7160034179688	558.3549804687501	-631.6147460937501	-323.4141540527344	557.2574462890626	-764.9509887695314	-306.7338256835938	360.7047424316407	-732.9634399414064	-342.2351074218751	278.4256591796876	-671.3458251953126	-307.7862854003907	273.9403686523438	-705.0897216796876	-319.2426147460938	231.7240600585938	-742.0762329101564	-379.9506530761719	126.1893768310547	-707.5035400390626	-351.0707092285157	145.4908447265625	-795.4766845703127	-446.4779357910157	107.239730834961	-766.6169433593751	-236.7563934326172	56.42571258544923	-775.3469848632815	-231.4022216796876	61.72116088867189	-722.7132568359376	-282.8241271972657	35.97714233398438	-670.2590332031251	-26.76279449462891	1486.715087890625	-911.6823730468752	
322	1.605	-314.6535339355469	1809.444702148438	-629.1171875000001	-468.399627685547	1750.969970703125	-702.6577148437501	-303.5458984375001	1818.445434570313	-771.0793457031252	-472.663543701172	1598.602294921875	-723.0870361328126	-478.7975463867189	1290.09814453125	-717.8167724609376	-317.7991333007813	1551.998901367188	-706.3289794921876	-329.1377258300782	1608.158935546875	-858.3248291015627	-174.4586639404297	1539.201782226563	-969.8446044921877	-149.3008728027344	1576.302490234375	-945.7410278320315	-104.9654159545899	1538.671020507813	-962.3487548828127	-31.41892242431641	1541.892822265625	-945.8234863281252	235.1147460937501	1551.7265625	-848.929138183594	238.6427001953126	1571.15185546875	-927.7463378906252	335.7679443359376	1574.12451171875	-849.0965576171877	-346.5443725585938	1604.051635742188	-554.4109497070314	-190.1134643554688	1521.140991210938	-444.6508178710939	-166.7859802246094	1558.639038085938	-469.3407592773439	-120.8026504516602	1530.226196289063	-445.2368164062501	-53.78622055053712	1521.591674804688	-451.0696411132814	-44.7447738647461	1462.313110351563	-501.1542053222657	217.4838104248047	1549.824584960938	-530.8675537109376	214.8445892333985	1563.65185546875	-450.2554931640626	309.7385559082032	1576.231811523438	-516.5556030273439	-294.3821716308594	1116.939086914063	-863.807067871094	-281.3017272949219	1087.544067382813	-624.6525268554689	-485.8816528320314	1164.915161132813	-718.7080688476564	-493.5715637207032	1136.003051757813	-749.1629028320314	-484.6893310546876	1130.098266601563	-692.1589965820314	-204.1317138671876	898.742370605469	-941.1611938476565	-136.4819946289063	850.4597167968752	-928.4900512695315	-105.435791015625	870.6226196289065	-893.972595214844	-129.1321105957032	790.8590087890627	-926.376892089844	-68.79944610595705	710.8972778320314	-915.3146972656252	-66.21343994140626	698.7557373046876	-788.6445312500002	53.92631149291994	634.6300048828126	-871.247985839844	44.83166885375977	580.9857788085939	-936.0465087890627	76.84924316406251	594.3859863281251	-907.170104980469	126.992546081543	530.1676635742189	-883.734558105469	209.3439941406251	340.0441894531251	-911.212341308594	207.1361694335938	359.8213195800782	-818.9506835937502	184.22314453125	266.6003723144532	-866.6391601562502	346.7370910644532	412.8680114746095	-821.194030761719	352.9240722656251	421.2209777832032	-868.1030273437502	339.3476257324219	376.2487487792969	-926.0703125000002	-376.7634582519532	869.0222778320315	-575.1206054687501	-338.2795715332032	815.2204589843752	-579.0645751953126	-305.7345886230469	816.748718261719	-581.7336425781251	-365.0139465332032	737.5972290039064	-599.3359985351564	-355.5044860839844	558.2934570312501	-631.6612548828126	-323.4437255859376	557.2293701171876	-765.0609130859376	-306.6282958984376	360.6552124023438	-733.1264038085939	-342.1579284667969	278.3900451660157	-671.4784545898439	-307.7583312988282	273.8853149414063	-705.2751464843751	-319.1581726074219	231.5706634521485	-742.2377319335939	-379.8204956054688	126.2026519775391	-707.6766967773439	-350.9873046875001	145.4999084472657	-795.5940551757815	-446.466278076172	107.2377319335938	-766.6604614257814	-236.8774414062501	56.40618133544923	-775.444274902344	-231.337875366211	61.81625747680665	-722.8263549804689	-282.8025207519532	36.05340576171876	-670.3610839843751	-26.71924209594727	1486.688110351563	-911.436462402344	
323	1.61	-314.7228088378907	1809.396850585938	-629.2037353515626	-468.4215698242189	1750.855712890625	-702.7409057617189	-303.6142272949219	1818.340698242188	-771.139343261719	-472.7846984863282	1598.42333984375	-723.1174926757814	-478.8277893066407	1289.997192382813	-717.7132568359376	-317.9530029296876	1551.888427734375	-706.3125610351564	-329.1092224121094	1607.966186523438	-858.394714355469	-174.3562927246094	1539.040893554688	-969.8259887695315	-149.3196716308594	1576.122924804688	-945.652770996094	-104.9799118041992	1538.5390625	-962.2091064453127	-31.40267372131348	1541.79541015625	-945.677673339844	235.1515197753907	1551.82080078125	-848.672546386719	238.6755065917969	1571.110595703125	-927.5307617187502	335.7599182128907	1574.158447265625	-848.8431396484377	-346.6197814941407	1604.015869140625	-554.4458007812501	-190.1265563964844	1521.30810546875	-444.6985778808595	-166.9906311035157	1558.697387695313	-469.4507446289064	-120.9828338623047	1530.282958984375	-445.1788330078126	-53.86006546020509	1521.653564453125	-451.0474243164064	-44.85336303710938	1462.356689453125	-501.0740966796876	218.0060272216797	1550.188354492188	-530.8917846679689	214.780258178711	1563.930908203125	-450.0642089843751	309.5443420410157	1576.635375976563	-516.2640991210939	-294.4034118652344	1116.821533203125	-863.7078247070315	-281.2113952636719	1087.403198242188	-624.5398559570314	-485.8841247558595	1164.842651367188	-718.4432983398439	-493.546356201172	1135.905395507813	-748.9494018554689	-484.6316833496095	1130.0087890625	-691.9709472656251	-204.3674316406251	898.4942016601565	-940.7540283203127	-136.4686737060547	850.3279418945315	-928.1909179687502	-105.520980834961	870.5596923828127	-893.5979614257815	-128.9730987548828	790.6912841796877	-926.0278320312502	-68.80953216552736	710.8022460937501	-914.8928222656252	-66.2309036254883	698.4429321289064	-788.2866821289065	53.96497344970705	634.4259033203126	-870.6860961914065	44.83318710327149	580.9050903320314	-935.6374511718752	76.71438598632814	594.1270751953126	-906.6694335937502	127.0414352416992	530.0827636718751	-883.2749023437502	209.2058715820313	339.6908264160157	-910.5566406250002	207.0067749023438	359.5266418457032	-818.3692016601565	184.0397491455078	266.3430175781251	-865.9365844726565	346.4592285156251	412.3816223144532	-820.6174316406252	353.0366210937501	421.0051269531251	-867.507751464844	339.3009033203126	375.9432067871094	-925.4053955078127	-376.3391418457032	868.9412231445315	-574.9600219726564	-337.9506530761719	815.0584716796877	-579.0098876953126	-305.0463562011719	816.6568603515627	-581.9373168945314	-364.8476257324219	737.5955810546876	-599.3038330078126	-355.1740417480469	558.1699218750001	-631.6694946289064	-323.4365539550782	557.2169799804689	-765.1755371093751	-306.6726989746094	360.5690002441407	-733.1726074218751	-342.0729370117188	278.3522949218751	-671.5612182617189	-307.5493469238282	273.6685485839844	-705.4660644531251	-319.0830383300782	231.5212860107422	-742.4823608398439	-379.7498779296876	126.1817321777344	-707.7977905273439	-350.9803771972657	145.4559631347657	-795.736267089844	-446.4876708984376	107.2388153076172	-766.6842041015626	-236.8162689208985	56.38422012329103	-775.4812622070315	-231.3795776367188	61.88077545166017	-722.9113159179689	-282.8069763183594	36.13569641113282	-670.3694458007814	-26.69714736938477	1486.629516601563	-911.3530273437502	
324	1.615	-314.8462524414063	1809.32470703125	-629.4016113281251	-468.6051025390626	1750.801025390625	-702.7759399414064	-303.6627502441407	1818.142822265625	-771.307800292969	-472.8304443359376	1598.474609375	-723.1759643554689	-478.8899841308595	1289.88330078125	-717.6282958984376	-318.0033264160157	1551.816040039063	-706.3259277343751	-329.1186828613282	1607.849609375	-858.4006958007815	-174.3091735839844	1538.891357421875	-969.758239746094	-149.3196258544922	1575.921508789063	-945.591247558594	-104.9773178100586	1538.397705078125	-962.0989990234377	-31.3950424194336	1541.690185546875	-945.4360961914065	235.1703186035157	1551.858520507813	-848.4157714843752	238.6712799072266	1571.093627929688	-927.314392089844	335.8015747070313	1574.219116210938	-848.576843261719	-346.7236633300782	1604.01953125	-554.4898071289064	-190.5436248779297	1521.310791015625	-444.5714111328126	-167.3972625732422	1558.791015625	-469.4281616210939	-121.2153015136719	1530.40185546875	-445.1436767578126	-54.0942840576172	1521.7158203125	-450.793426513672	-44.89714431762696	1462.405395507813	-501.0522766113282	217.9486083984376	1550.5859375	-530.6123657226564	214.7189331054688	1564.035278320313	-449.9564819335939	309.4813232421876	1577.006225585938	-515.9923706054689	-294.4077148437501	1116.742309570313	-863.642517089844	-281.1619873046876	1087.370239257813	-624.4697875976564	-485.8834228515626	1164.73681640625	-718.2293090820314	-493.5630798339845	1135.741577148438	-748.6438598632814	-484.5816955566407	1129.918579101563	-691.7694091796876	-205.2590484619141	897.966735839844	-939.8523559570315	-136.5146026611328	850.133483886719	-927.891052246094	-105.7868423461914	870.290222167969	-893.1363525390627	-128.9139404296875	790.526306152344	-925.8043212890627	-68.79978942871095	710.6630249023439	-914.456726074219	-66.18394470214845	698.1739501953126	-787.9007568359377	53.90827560424806	634.1096191406251	-870.095153808594	44.71877670288087	580.7158203125001	-935.2093505859377	76.71146392822267	593.9595336914064	-906.2540283203127	127.0289764404297	529.7913818359376	-882.6953735351565	209.1336669921876	339.5393981933594	-910.1285400390627	206.7959747314454	359.4539794921876	-817.8410644531252	183.8222808837891	266.1914978027344	-865.4219360351565	346.3024291992188	412.0113830566407	-820.0598754882815	352.9456787109376	420.6678771972657	-866.8572998046877	339.1405639648438	375.5992431640626	-924.783874511719	-376.2266540527344	868.7617187500002	-574.7238769531251	-337.6032409667969	815.2459106445315	-579.0352783203126	-304.9278564453126	816.6181640625002	-581.9058227539064	-364.6144104003907	737.6654052734376	-599.2207031250001	-355.0467529296876	558.1184082031251	-631.6624755859376	-323.3819274902344	557.1617431640626	-765.1845703125001	-306.6142578125001	360.5590820312501	-733.2498779296876	-341.8731079101563	278.3121643066407	-671.7218627929689	-307.4834594726563	273.6348571777344	-705.5732421875001	-319.0551147460938	231.4940948486329	-742.5004272460939	-379.7348022460938	126.2323303222657	-707.9424438476564	-350.9143981933594	145.42529296875	-795.8477783203127	-446.4717712402345	107.2281799316407	-766.7454833984376	-237.0657653808594	56.2540626525879	-775.5849609375002	-231.3531799316407	61.9142532348633	-722.9547119140626	-282.8024597167969	36.20102310180665	-670.3532714843751	-26.66791915893555	1486.596557617188	-911.2031250000002	
